/* XPM */
static char *_6ff9a5e97164fc0d9091f65a582538d2uVUssMCyfusmaWU[] = {
/* columns rows colors chars-per-pixel */
"64 64 8 1 ",
"  c red",
". c #00FF15",
"X c #FFCC00",
"o c #F2FF00",
"O c #4000FF",
"+ c #FF00B7",
"@ c #E100FF",
"# c #00FFE9",
/* pixels */
"####      ###XXXXXX###oooooo####################################",
"####      ###XXXXXX###oooooo####################################",
"####      ###XXXXXX###oooooo####################################",
"++++         XXXXXXXXXooooooooo#################################",
"++++         XXXXXXXXXooooooooo#################################",
"++++         XXXXXXXXXooooooooo#################################",
"+++++++         XXXXXXXXXooooooooo##############################",
"+++++++         XXXXXXXXXooooooooo##############################",
"+++++++         XXXXXXXXXooooooooo##############################",
"#+++++++++         XXXXXXXXXooooooooo###########################",
"#+++++++++         XXXXXXXXXooooooooo###########################",
"#+++++++++         XXXXXXXXXooooooooo###########################",
"@@@@+++++++++         XXXXXXXXXooooooooo########################",
"@@@@+++++++++         XXXXXXXXXooooooooo########################",
"@@@@+++++++++         XXXXXXXXXooooooooo########################",
"@@@@@@@+++++++++         XXXXXXXXXooooooooo#####################",
"@@@@@@@+++++++++         XXXXXXXXXooooooooo#####################",
"@@@@@@@+++++++++         XXXXXXXXXooooooooo#####################",
"#@@@@@@@@@+++++++++         XXXXXXXXXooooooooo##################",
"#@@@@@@@@@+++++++++         XXXXXXXXXooooooooo##################",
"#@@@@@@@@@+++++++++         XXXXXXXXXooooooooo##################",
"OOOO@@@@@@@@@+++++++++         XXXXXXXXXooooooooo###############",
"OOOO@@@@@@@@@+++++++++         XXXXXXXXXooooooooo###############",
"OOOO@@@@@@@@@+++++++++         XXXXXXXXXooooooooo###############",
"OOOOOOO@@@@@@@@@+++++++++         XXXXXXXXXooooooooo############",
"OOOOOOO@@@@@@@@@+++++++++         XXXXXXXXXooooooooo############",
"OOOOOOO@@@@@@@@@+++++++++         XXXXXXXXXooooooooo############",
"#OOOOOOOOO@@@@@@@@@+++++++++      XXXXXXXXXXXXooooooooo#########",
"#OOOOOOOOO@@@@@@@@@+++++++++         XXXXXXXXXooooooooo#########",
"#OOOOOOOOO@@@@@@@@@+++++++++         XXXXXXXXXooooooooo#########",
"....OOOOOOOOO@@@@@@@@@+++++++++         XXXXXXXXXooooooooo######",
"....OOOOOOOOO@@@@@@@@@+++++++++         XXXXXXXXXooooooooo######",
"....OOOOOOOOO@@@@@@@@@+++++++++         XXXXXXXXXooooooooo######",
".......OOOOOOOOOO@@@@@@@@+++++++++         XXXXXXXXXooooooooo###",
".......OOOOOOOOOO@@@@@@@@+++++++++         XXXXXXXXXooooooooo###",
".......OOOOOOOOOO@@@@@@@@+++++++++         XXXXXXXXXooooooooo###",
"#.........OOOOOOOOO@@@@@@@@@+++++++++         XXXXXXXXXooooooooo",
"#.........OOOOOOOOO@@@@@@@@@+++++++++         XXXXXXXXXooooooooo",
"#.........OOOOOOOOO@@@@@@@@@+++++++++         XXXXXXXXXooooooooo",
"####.........OOOOOOOOO@@@@@@@@@+++++++++         XXXXXXXXXoooooo",
"####.........OOOOOOOOO@@@@@@@@@+++++++++         XXXXXXXXXoooooo",
"####.........OOOOOOOOO@@@@@@@@@+++++++++         XXXXXXXXXoooooo",
"#######.........OOOOOOOOO@@@@@@@@@+++++++++         XXXXXXXXX###",
"#######.........OOOOOOOOO@@@@@@@@@+++++++++         XXXXXXXXX###",
"#######.........OOOOOOOOO@@@@@@@@@+++++++++         XXXXXXXXX###",
"##########.........OOOOOOOOO@@@@@@@@@+++++++++         XXXXXXXXX",
"##########.........OOOOOOOOO@@@@@@@@@+++++++++         XXXXXXXXX",
"##########.........OOOOOOOOO@@@@@@@@@+++++++++         XXXXXXXXX",
"#############.........OOOOOOOOO@@@@@@@@@+++++++++         XXXXXX",
"#############.........OOOOOOOOO@@@@@@@@@+++++++++         XXXXXX",
"#############.........OOOOOOOOO@@@@@@@@@+++++++++         XXXXXX",
"################.........OOOOOOOOO@@@@@@@@@+++++++++         ###",
"################.........OOOOOOOOO@@@@@@@@@+++++++++         ###",
"################.........OOOOOOOOOOOO@@@@@@+++++++++         ###",
"###################.........OOOOOOOOO@@@@@@@@@+++++++++         ",
"###################.........OOOOOOOOO@@@@@@@@@+++++++++         ",
"###################.........OOOOOOOOO@@@@@@@@@+++++++++         ",
"######################..........OOOOOOOO@@@@@@@@@+++++++++      ",
"######################..........OOOOOOOO@@@@@@@@@+++++++++      ",
"######################..........OOOOOOOO@@@@@@@@@+++++++++      ",
"#########################.........OOOOOOOOO@@@@@@@@@+++++++++###",
"#########################.........OOOOOOOOO@@@@@@@@@+++++++++###",
"#########################.........OOOOOOOOO@@@@@@@@@+++++++++###",
"############################......###OOOOOO###@@@@@@###++++++###"
};
