/* XPM */
static char *_1e40e4cb6dd4754dce547930dc37423LdaqIJbmxbA7pIEK[] = {
/* columns rows colors chars-per-pixel */
"64 64 50 1 ",
"  c #020E02",
". c #12150E",
"X c #1D262D",
"o c #733532",
"O c #4C454D",
"+ c #614D42",
"@ c #636750",
"# c #666755",
"$ c #686556",
"% c #606C56",
"& c #6E645A",
"* c #7A6458",
"= c #696C65",
"- c red",
"; c #A66E7B",
": c #AD6F7E",
"> c #DA554E",
", c #DA5451",
"< c #D95256",
"1 c #D45850",
"2 c #00FF15",
"3 c #FFCC00",
"4 c #F2FF00",
"5 c #4000FF",
"6 c #FF00B7",
"7 c #E100FF",
"8 c #9D61FD",
"9 c #7D8D9A",
"0 c #02FDDE",
"q c #02FFE3",
"w c #04FEE2",
"e c #02FEE7",
"r c #05FCE7",
"t c #09FFE7",
"y c #00FBE9",
"u c #00FFE9",
"i c #06FDE8",
"p c #01FDEE",
"a c #06FEEC",
"s c #0AFFEE",
"d c #00FCF1",
"f c #8B9185",
"g c #A296A3",
"h c #E78EDE",
"j c #D88AE0",
"k c #D0D1CC",
"l c #D9D8E8",
"z c #FCF4F1",
"x c #F5F3FF",
"c c #FAF4FF",
/* pixels */
"uuuuuuuuuuuuuuuuuuuuuuuuuuuuuuuuuuuuuuuuuuuuuuuuuuuuuuuuuuuuuuuu",
"uuuuuuuuuuuuuuuuuuuuuuuuuuuuuuuuuuuuuuuuuuuuuuuuuuuuuuuuuuuuuuuu",
"uuuuuuuuuuuuuuuuuuuuuuuuuuuuuuuuuuuuuuuuuuuuuuuuuuuuuuuuuuuuuuuu",
"uuuuuuuuuuuuuuuuuuuuuuuuuuuuuuuuuuuuuuuuuuuuuuuuuuuuuuuuuuuuuuuu",
"uuuuuuuuuuuuuuuuuuuuuuuuuuuuuuuuuuuuuuuuuuuuuuuuuuuuuuuuuuuuuuuu",
"uuuuuuuuuuuuuuuuuuuuuuuuuuuuuuuuuuuuuuuuuuuuuuuuuuuuuuuuuuuuuuuu",
"uuuuuuuuuuuuuuuuuuuuuuuuuuuuuuuuuuuuuuuuuuuuuuuuuuuuuuuuuuuuuuuu",
"uuuuuuuuuuuuuuuuuuuuuuuuuuuuuuuuuuuuuuuuuuuuuuuuuuuuuuuuuuuuuuuu",
"uuuuuuuuuuuuuuuuuuuuuuuuuuuuuuuuuuuuuuuuuuuuuuuuuuuuuuuuuuuuuuuu",
"uuuuuuuuuuuuuuuuuuuuuuuuuuuuuuuuuuuuuuuuuuuuuuuuuuuuuuuuuuuuuuuu",
"uuuuuuuuuuuuuuuuuuuuuuuuuuuuuuuuuuuuuuuuuuuuuuuuuuuuuuuuuuuuuuuu",
"uuuuuuuuuuuuuuuuuuuuuuuuuuuuuuuuuuuuuuuuuuuuuuuuuuuuuuuuuuuuuuuu",
"uuuuuuuuuuuuuuuuuuuuuuuuuuuuuuuuuuuuuuuuuuuuuuuuuuuuuuuuuuuuuuuu",
"uuuuuuuuuuuuuuuuuuuuuuuuuuuuuuuuuuuuuuuuuuuuuuuuuuuuuuuuuuuuuuuu",
"uuuuuuuuuuuuuuuuuuuuuuuuuuuuuuuuuuuuuuuuuuuuuuuuuuuuuuuuuuuuuuuu",
"uuuuuuuuuuuuuuuuuuuuuuuuuuuuuuuuuuuuuuuuuuuuuuuuuuuuuuuuuuuuuuuu",
"uuuuuuuuuuuuuuuuuuuuuuuquuuuuuuuuuuuuuuuuuuuuuuuuuuuuuuuuuuuuuuu",
"uuuuuuuuuuuuuuuuuuuuuuuiuuuuuuuuuuuuuuuuuuuuuuuuuuuuuuuuuuuuuuuu",
"uuuuuuuuuuuuuuuuuuuuuuuuuuuuuuuuuuuuuuuuuuuuuuuuuuuuuuuuuuuuuuuu",
"uuuuuuuuuuuuuuuuuuuuuuuquuuuuuuuuuuuuuuuuuuuuuuuuuuuuuuuuuuuuuuu",
"uuuuuuuuuuuuuuuuuuuuuuueuuuuuuuuuuuuuuuuuuuuuuuuuuuuuuuuuuuuuuuu",
"uuuuuuuuuuuuuuuuuuuuuuuuuuuuuuuuuuuuuuuuuuuuuuuuuuuuuuuuuuuuuuuu",
"uuuuuuu444444444uuuuuuuruuuuuuuuuuuuuuuuuuuu+uuuuu+uuuuuuuuuuuuu",
"uuuu4444444444444uuuuuuuuuuuuuuuuuuuuuuuuuu+++uuu+++uuuuuuuuuuuu",
"uuu4444433333334444uuuuoooooooooooooooooou++9++e++9++ydwuuuuuuuu",
"u444433333333333344444oo1111111111111111ou+9;9+e+9;9+udeuuuuuuuu",
"44433333-------3333444o1111111111111111<1++=;=+++=:=+uuuuuuuuuuu",
"443333-----------33333o111888888888888111############+uuuuuuuuuu",
"3333----6666666---3333o118888888888888811##$O#####O@&+suuuuuuuuu",
"33----6666666666------o118888888888888811##O O###O O%+uuuuuuuuuu",
"----66667777776666----o118888888888888811#O   O#O.  O+uauuuuuuuu",
"--66667777777777666666o118888888888888811#O   OkO   O+uuuuuuuuuu",
"6666777755555577776666o1188888888888888>1##O OkxkOXO#+uuuuuuuuuu",
"6677775555555555777777o1188888888888888,1###kkxxxkk##+uuuuuuuuuu",
"7777555522222255557777o118888888888888811##kzxhhhxxk#+uuuuuuuuuu",
"7755552222222222555555o111888888888888111+kcxxhjhxxxk+uuuuuuuuuu",
"55552222uuuuuu22225555o11111111111111111ou+flllllllf+uuuuuuuuuuu",
"552222uuuuuuuuuu222222oo1111111111111111ouuu+++++++uuuuuuuuuuuuu",
"2222uuuuuuuuuuuuuu22222ooooooooooooooooouupuuuuuepueuuuuuuuuuuuu",
"22uuuuuuuuuuuuuuuuuuuuuaqp++*0pppp0++*pquuuuuuuuuuiuuuuuuuuuuuuu",
"uuuuuuuuuuuuuuuuuuuuuuuuuu++*uuuuuu++*uuuuuuuuuuuuuuuuuuuuuuuuuu",
"uuuuuuuuuuuuuuuuuuuuuuut+++**uuuu+++**uuuuuuuuuuuuuuuuuuuuuuuuuu",
"uuuuuuuuuuuuuuuuuuuuuuugg+**uuuugg+**uuuuuuuuuuuuuuuuuuuuuuuuuuu",
"uuuuuuuuuuuuuuuuuuuuuuuuuuuuuuuuuuuuuuuuuuuuuuuuuuuuuuuuuuuuuuuu",
"uuuuuuuuuuuuuuuuuuuuuuueuuuuuuuuuuuuuuuuuuuuuuuuuuuuuuuuuuuuuuuu",
"uuuuuuuuuuuuuuuuuuuuuuu0uuuuuuuuuuuuuuuuuuuuuuuuuuuuuuuuuuuuuuuu",
"uuuuuuuuuuuuuuuuuuuuuuuuuuuuuuuuuuuuuuuuuuuuuuuuuuuuuuuuuuuuuuuu",
"uuuuuuuuuuuuuuuuuuuuuuuduuuuuuuuuuuuuuuuuuuuuuuuuuuuuuuuuuuuuuuu",
"uuuuuuuuuuuuuuuuuuuuuuuuuuuuuuuuuuuuuuuuuuuuuuuuuuuuuuuuuuuuuuuu",
"uuuuuuuuuuuuuuuuuuuuuuuuuuuuuuuuuuuuuuuuuuuuuuuuuuuuuuuuuuuuuuuu",
"uuuuuuuuuuuuuuuuuuuuuuuuuuuuuuuuuuuuuuuuuuuuuuuuuuuuuuuuuuuuuuuu",
"uuuuuuuuuuuuuuuuuuuuuuuuuuuuuuuuuuuuuuuuuuuuuuuuuuuuuuuuuuuuuuuu",
"uuuuuuuuuuuuuuuuuuuuuuuuuuuuuuuuuuuuuuuuuuuuuuuuuuuuuuuuuuuuuuuu",
"uuuuuuuuuuuuuuuuuuuuuuuuuuuuuuuuuuuuuuuuuuuuuuuuuuuuuuuuuuuuuuuu",
"uuuuuuuuuuuuuuuuuuuuuuuuuuuuuuuuuuuuuuuuuuuuuuuuuuuuuuuuuuuuuuuu",
"uuuuuuuuuuuuuuuuuuuuuuuuuuuuuuuuuuuuuuuuuuuuuuuuuuuuuuuuuuuuuuuu",
"uuuuuuuuuuuuuuuuuuuuuuuuuuuuuuuuuuuuuuuuuuuuuuuuuuuuuuuuuuuuuuuu",
"uuuuuuuuuuuuuuuuuuuuuuuuuuuuuuuuuuuuuuuuuuuuuuuuuuuuuuuuuuuuuuuu",
"uuuuuuuuuuuuuuuuuuuuuuuuuuuuuuuuuuuuuuuuuuuuuuuuuuuuuuuuuuuuuuuu",
"uuuuuuuuuuuuuuuuuuuuuuuuuuuuuuuuuuuuuuuuuuuuuuuuuuuuuuuuuuuuuuuu",
"uuuuuuuuuuuuuuuuuuuuuuuuuuuuuuuuuuuuuuuuuuuuuuuuuuuuuuuuuuuuuuuu",
"uuuuuuuuuuuuuuuuuuuuuuuuuuuuuuuuuuuuuuuuuuuuuuuuuuuuuuuuuuuuuuuu",
"uuuuuuuuuuuuuuuuuuuuuuuuuuuuuuuuuuuuuuuuuuuuuuuuuuuuuuuuuuuuuuuu",
"uuuuuuuuuuuuuuuuuuuuuuuuuuuuuuuuuuuuuuuuuuuuuuuuuuuuuuuuuuuuuuuu"
};
