/* XPM */
static char *_a11dcb2967d4f46a35ef1126d5ec5d6siIVTJWIs1Fw8SlP[] = {
/* columns rows colors chars-per-pixel */
"64 64 126 2 ",
"   c #000000",
".  c #01040A",
"X  c #060010",
"o  c #0A0017",
"O  c #000C15",
"+  c #0B001A",
"@  c #000D18",
"#  c #00111E",
"$  c #0E0023",
"%  c #100026",
"&  c #001425",
"*  c #001628",
"=  c #19003C",
"-  c #081435",
";  c #001D34",
":  c #001F38",
">  c #00223D",
",  c #1B0042",
"<  c #1E0049",
"1  c #230055",
"2  c #26025E",
"3  c #002747",
"4  c #00294A",
"5  c #002E52",
"6  c #00325B",
"7  c #310076",
"8  c #003766",
"9  c #003866",
"0  c #003A69",
"q  c #003F72",
"w  c #14307F",
"e  c #04406E",
"r  c #024274",
"t  c #094B75",
"y  c #00447A",
"u  c #3A008E",
"i  c #3C0092",
"p  c #330C90",
"a  c #3816AF",
"s  c #42009F",
"d  c #4200A1",
"f  c #004781",
"g  c #024E8A",
"h  c #155F84",
"j  c #005193",
"k  c #01569A",
"l  c #045A9E",
"z  c #186588",
"x  c #1D6E8F",
"c  c #1D779F",
"v  c #217594",
"b  c #267D9A",
"n  c #005BA4",
"m  c #005EAA",
"M  c #0B54B4",
"N  c #0858B2",
"B  c #0E58BC",
"V  c #0061AC",
"C  c #0164B2",
"Z  c #046AB9",
"A  c #2B33C5",
"S  c #273CCB",
"D  c #283BCB",
"F  c #382BD6",
"G  c #392CD8",
"H  c #3133D2",
"J  c #5300C9",
"K  c #5C00DF",
"L  c #4917DC",
"P  c #5F00E8",
"I  c #4E19EA",
"U  c #580FF1",
"Y  c #5711F1",
"T  c #6100EB",
"R  c #6500F6",
"E  c #6702FC",
"W  c #6B00FF",
"Q  c #6108FC",
"!  c #6A1CFE",
"~  c #4521E3",
"^  c #4231F0",
"/  c #2254DC",
"(  c #036EC3",
")  c #0D7AC6",
"_  c #0472CA",
"`  c #1564D9",
"'  c #126CDC",
"]  c #0577D1",
"[  c #057AD5",
"{  c #0A7ED5",
"}  c #0F71DC",
"|  c #067CD9",
" . c #1070DD",
".. c #1F5CE2",
"X. c #3942EF",
"o. c #2457E5",
"O. c #2C5CE9",
"+. c #605FF9",
"@. c #6C65FD",
"#. c #1D89BF",
"$. c #3191A9",
"%. c #3BA2B5",
"&. c #3DA6B8",
"*. c #1E8FCB",
"=. c #0583DD",
"-. c #0887DD",
";. c #068CDC",
":. c #0889DB",
">. c #0592DD",
",. c #1792DE",
"<. c #1993DF",
"1. c #1888E6",
"2. c #0A99E1",
"3. c #3ABEEA",
"4. c #6C8CFC",
"5. c #6CA2FB",
"6. c #6DA9FB",
"7. c #6DBEFB",
"8. c #00FFE9",
"9. c #6DC2FA",
"0. c #6ED2FA",
"q. c #6ED5FA",
"w. c #6EDDFA",
"e. c #6EE8FA",
"r. c #6FF7F9",
"t. c #6FFAF9",
/* pixels */
"8.8.8.8.8.8.8.8.8.8.8.8.8.8.8.8.8.8.8.8.8.8.8.8.8.8.8.8.8.8.8.8.8.8.8.8.8.8.8.8.8.8.8.8.8.8.8.8.8.8.8.8.8.8.8.8.8.8.8.8.8.8.8.8.",
"8.8.8.8.8.8.8.8.8.8.8.8.8.8.8.8.8.8.8.-.:.:.:.:.:.:.:.:.:.:.:.:.:.:.:.:.:.:.:.:.:.:.:.:.:.:.8.8.8.8.8.8.8.8.8.8.8.8.8.8.8.8.8.8.",
"8.8.8.8.8.8.8.8.8.8.8.8.8.8.8.8.8.8.8.| | | | | | | | | | | | | | | | | | | | | | | | | | | 8.8.8.8.8.8.8.8.8.8.8.8.8.8.8.8.8.8.",
"8.8.8.8.8.8.8.8.8.8.8.8.8.8.8.8.8.8.O.^ ^ ^ ^ ^ ^ ^ ^ ^ ^ ^ ^ ^ ^ ^ ^ ^ ^ ^ ^ ^ ^ ^ ^ ^ ^ ^ 1.8.8.8.8.8.8.8.8.8.8.8.8.8.8.8.8.8.",
"8.8.8.8.8.8.8.8.8.8.8.8.=.=.! ! ! ! ! ! ! ! ! ! ! ! ! ! ! ! ! ! ! ! ! ! ! ! ! ! ! ! ! ! ! ! ! ! ! ! =.| 8.8.8.8.8.8.8.8.8.8.8.8.",
"8.8.8.8.8.8.8.8.8.8.8.8.=.=.! ! ! ! ! ! ! ! ! ! ! ! ! ! ! ! ! ! ! ! ! ! ! ! ! ! ! ! ! ! ! ! ! ! ! ! ....8.8.8.8.8.8.8.8.8.8.8.8.",
"8.8.8.8.8.8.8.8.8.>.=.! ! ! ! ! ! ! 5.t.r.r.r.r.t.r.r.r.r.r.r.r.r.r.r.r.r.r.t.r.r.r.r.r.r.r.! ! ! ! E E X.=.=.8.8.8.8.8.8.8.8.8.",
"8.8.8.8.8.8.8.8.8.=.=.! ! ! ! ! ! ! 6.8.8.8.8.8.8.8.8.8.8.8.8.8.8.8.8.8.8.8.8.8.8.8.8.8.8.8.! ! ! ! ! ! ! | [ 8.8.8.8.8.8.8.8.8.",
"8.8.8.8.8.8.8.8.8.=.=.! ! ! ! 4.9.7.e.8.8.8.8.8.8.8.8.8.8.8.8.8.8.8.8.8.8.8.8.8.8.8.8.8.8.8.0.7.7.! ! ! ! | | 8.8.8.8.8.8.8.8.8.",
"8.8.8.8.8.8.8.8.! ! ! ! ! ! ! 7.8.8.8.8.8.8.8.8.8.8.8.8.8.8.8.8.8.8.8.8.8.8.8.8.8.8.8.8.8.8.8.8.8.! ! ! ! =.| 8.8.8.8.8.8.8.8.8.",
"8.8.8.8.8.8.8.8.! ! ! ! +.@.@.q.8.8.8.8.8.8.8.8.8.8.8.8.8.8.8.8.8.8.8.8.8.8.8.8.8.8.8.8.8.8.8.8.8.! ! ! ! ! ! ! 8.8.8.8.8.8.8.8.",
"8.8.8.8.8.8.=.=.! ! ! ! 0.8.8.8.8.8.8.8.8.8.8.8.8.8.8.8.8.8.8.8.8.8.8.8.8.8.8.8.8.8.8.8.8.8.8.8.8.8.8.8.! ! ! ! | | 8.8.8.8.8.8.",
"8.8.8.8.8.8.=.=.! ! ! ! 0.8.8.8.8.8.8.8.8.8.8.8.8.8.8.8.8.8.8.8.8.8.8.8.8.8.8.8.8.8.8.8.8.8.8.8.8.8.8.8.! ! ! !  .' 2.8.8.8.8.8.",
"8.8.8.>.>.! ! ! ! 9.w.w.r.8.8.8.8.8.8.8.8.8.8.8.8.8.8.8.8.8.8.8.8.8.8.8.8.8.8.8.8.8.8.8.8.8.8.8.8.8.8.8.! ! ! ! ! ! ! :.;.8.8.8.",
"8.8.8.=.| ! ! ! ! 8.8.8.8.8.8.8.8.8.8.8.8.8.8.8.8.8.8.8.8.8.8.8.8.8.8.8.8.8.8.8.8.8.8.8.8.8.8.8.8.8.8.8.8.8.8.! ! ! ! | ] 8.8.8.",
"8.8.8.=.| ! ! ! ! 8.8.8.8.8.8.8.8.8.8.8.8.8.8.8.8.8.8.8.8.8.8.8.8.8.8.8.8.8.8.8.8.8.8.8.8.8.8.8.8.8.8.8.8.8.8.! ! ! ! | | 8.8.8.",
"8.8.8.=.| ! ! ! ! 8.8.8.8.8.8.8.8.8.8.8.8.8.8.8.8.8.8.8.8.8.8.8.8.8.8.8.8.8.8.8.8.8.8.8.8.8.8.8.8.8.8.8.8.8.8.! ! ! ! | | 8.8.8.",
"8.8.8.=.| ! ! ! ! 8.8.8.8.8.8.8.8.8.8.8.8.8.8.8.8.8.8.8.8.8.8.8.8.8.8.8.8.8.8.8.8.8.8.8.8.8.8.8.8.8.8.8.8.8.8.! ! ! ! { | 8.8.8.",
"8.8.8.=.| ! ! ! ! 8.8.8.8.8.8.8.8.8.8.8.8.8.8.8.8.8.8.8.8.8.8.8.8.8.8.8.8.8.8.8.8.8.8.8.8.8.8.8.8.8.8.8.8.8.8.! ! ! ! | } 8.8.8.",
"8.8.8.=.| ! ! ! ! 8.8.8.8.8.8.8.8.8.8.8.8.8.8.8.8.8.8.8.8.8.8.8.8.8.8.8.8.8.8.8.8.8.8.8.8.8.8.8.8.8.8.8.8.8.8.! ! ! ! [ [ 8.8.8.",
"8.8.8.=.| ! ! ! ! 8.8.8.8.8.8.8.8.8.8.8.8.8.8.8.8.8.8.8.8.8.8.8.8.8.8.8.8.8.8.8.8.8.8.8.8.8.8.8.8.8.8.8.8.8.8.! ! ! ! | | 8.8.8.",
"8.8.8.=.| ! ! ! ! 8.8.8.8.8.8.8.8.8.8.8.8.8.8.8.8.8.8.8.8.8.8.8.8.8.8.8.8.8.8.8.8.8.8.8.8.8.8.8.8.8.8.8.8.8.8.! ! ! ! | | 8.8.8.",
"8.8.8.=.| ! ! ! ! 8.8.8.8.8.8.8.8.8.8.8.8.8.8.8.8.8.8.8.8.8.8.8.8.8.8.8.8.8.8.8.8.8.8.8.8.8.8.8.8.8.8.8.8.8.8.! ! ! ! | } 8.8.8.",
"8.8.8.=.=.! ! ! ! 8.8.8.8.8.8.8.8.8.8.8.8.8.8.8.8.8.8.8.8.8.8.8.8.8.8.8.8.8.8.8.8.8.8.8.8.8.8.8.8.8.8.8.8.8.8.! ! ! ! [ [ 8.8.8.",
"8.8.8.=.=.! ! ! ! 8.8.8.8.8.8.8.8.8.8.8.8.8.8.8.8.8.8.8.8.8.8.8.8.8.8.8.8.8.8.8.8.8.8.8.8.8.8.8.8.8.8.8.8.8.8.! ! ! ! | | 8.8.8.",
"8.8.8.=.| ! ! ! ! 8.8.8.8.8.8.8.8.8.8.8.8.&.h h h h h h h h h h h h h h h h h h h z z 8.8.8.8.8.8.8.8.8.8.8.8.! ! ! ! } | 8.8.8.",
"8.8.8.=.| ! ! ! ! 8.8.8.8.8.8.8.8.8.8.8.8.$.8 0 9 0 0 0 0 0 0 0 9 9 0 9 0 0 0 0 9 9 0 8.8.8.8.8.8.8.8.8.8.8.8.! ! ! ! | } 8.8.8.",
"8.8.8.=.| ! ! ! ! 8.8.8.8.8.8.8.8.8.8.%.&.z 8 0 5 : ; : : : : ; > ; ; > : : ; > 8 0 e 8.8.8.8.8.8.8.8.8.8.8.8.! ! ! ! | [ 8.8.8.",
"8.8.8.=.| ! ! ! ! 8.8.8.8.8.8.8.8.8.b 8 9 0 0 0 :                             . 6 0 0 9 0 0 8.8.8.8.8.8.8.8.8.! ! ! ! | [ 8.8.8.",
"8.8.8.=.| ! ! ! ! 8.8.8.8.8.8.8.8.8.v 9 0 6 6 6 ;     . % % % % % % % $ $     . 4 6 6 8 0 0 8.8.8.8.8.8.8.8.8.! ! ! ! | | 8.8.8.",
"8.8.8.=.| ! ! ! ! 8.8.8.8.8.8.b t t e 0 0 ; . .       1 T T T P P P P T J o     . . . 5 0 0 r t t 8.8.8.8.8.8.! ! ! ! | } 8.8.8.",
"8.8.8.=.| ! ! ! ! 8.8.8.8.8.8.x 6 9 0 0 0 ;           2 W W W W W W W W K +         . 5 0 0 9 9 9 8.8.8.8.8.8.! ! ! ! [ [ 8.8.8.",
"8.8.8.=.| ! ! ! ! 8.8.8.8.8.8.x 9 0 > & & O     < s s a D D D D D D D S A d s i +     # * * 5 0 0 8.8.8.8.8.8.! ! ! ! | | 8.8.8.",
"8.8.8.=.| ! ! ! ! 8.8.8.8.8.8.x 9 0 &           7 W W ~ V V V V V V V V M Q W T %           4 0 0 8.8.8.8.8.8.! ! ! ! | | 8.8.8.",
"8.8.8.=.| ! ! ! ! 8.8.8.8.8.8.x 0 0 &     % , = p I I H V n m k k k m V M ~ I L 2 , , X     4 0 0 8.8.8.8.8.8.! ! ! ! | } 8.8.8.",
"8.8.8.=.| ! ! ! ! 8.8.8.8.8.8.x 9 0 &     u E W G m m m V V k 0 0 r m V V m V M U R T =     4 0 8 8.8.8.8.8.8.! ! ! ! | [ 8.8.8.",
"8.8.8.=.| ! ! ! ! 8.8.8.8.8.8.x 9 0 &     u W W G V n V V m j 0 9 y n m m V V N U W R =     4 0 0 8.8.8.8.8.8.! ! ! ! | | 8.8.8.",
"8.8.8.=.| ! ! ! ! 8.8.8.8.8.8.x 9 0 &     u W W G m V k y y r 0 0 0 r y f n V N Y W R =     4 0 9 8.8.8.8.8.8.! ! ! ! | | 8.8.8.",
"8.8.8.=.| ! ! ! ! 8.8.8.8.8.8.x 9 0 &     u W W G n V j 0 0 9 e 0 0 0 9 0 n V N U W R =     4 0 9 8.8.8.8.8.8.! ! ! ! | } 8.8.8.",
"8.8.8.=.| ! ! ! ! 8.8.8.8.8.8.x 9 0 &     s W W G V V j 0 0 6 > > 4 9 0 r n V N U W R =     4 0 9 8.8.8.8.8.8.! ! ! ! | [ 8.8.8.",
"8.8.8.=.| ! ! ! ! 8.8.8.8.8.8.x 9 0 &     u W W G V m j 9 0 4 .   O 8 0 q n V N U W R =     4 0 8 8.8.8.8.8.8.! ! ! ! | [ 8.8.8.",
"8.8.8.=.| ! ! ! ! 8.8.8.8.8.8.x 8 0 &     u W W F V V j 0 0 4     O 8 9 q n V N U W R =     4 0 0 8.8.8.8.8.8.! ! ! ! | | 8.8.8.",
"8.8.8.=.| ! ! ! ! 8.8.8.8.8.8.x 9 0 &     u W W G V V j 0 0 4     O 8 9 r n V N U W R =     4 0 9 8.8.8.8.8.8.! ! ! ! | } 8.8.8.",
"8.8.8.=.| ! ! ! ! 8.8.8.8.8.8.x 9 9 &     u W W G V m j 9 0 4 .   O 8 9 0 n V N U W R =     4 0 9 8.8.8.8.8.8.! ! ! ! } [ 8.8.8.",
"8.8.8.=.| ! ! ! ! 8.8.8.8.8.8.x 8 0 &     u W W G V V j 0 0 5     O 6 0 r n V N U W R =     4 0 9 8.8.8.8.8.8.! ! ! ! | | 8.8.8.",
"8.8.8.=.=.! ! ! ! 8.8.8.8.8.8.x 8 0 &     u W W G V m j 0 0 4     O 8 e r n m N U W R =     4 0 9 8.8.8.8.8.8.! ! ! ! } | 8.8.8.",
"8.8.8.=.=.! ! ! ! 8.8.8.8.8.8.x 9 0 &     u W W G m m j 0 0 4     O 9 9 r n V N U W R =     4 0 9 8.8.8.8.8.8.! ! ! ! | } 8.8.8.",
"8.8.8.=.| ! ! ! ! 8.8.8.8.8.8.x 9 0 &     s W W G V V j 0 q 5     O 8 9 e n V N U W R =     3 0 0 8.8.8.8.8.8.! ! ! ! | [ 8.8.8.",
"8.8.8.=.=.! ! ! ! 8.8.8.8.8.8.x 9 9 &     i W W G V V k 0 q 4     @ 0 0 q m V N Y W R =     3 0 9 8.8.8.8.8.8.! ! ! ! | | 8.8.8.",
"8.8.8.=.| ! ! ! ! 8.8.8.8.8.8.x 9 0 &     w o.o.` _ _ ( Z Z C k k l Z Z Z _ _ _ ..o./ -     3 q 0 8.8.8.8.8.8.! ! ! ! | | 8.8.8.",
"8.8.8.=.| ! ! ! ! 8.8.8.8.8.8.x 8 0 &     y =.=.=.| | | | =.| | | =.| | | | | | | =.[ ;     3 0 9 8.8.8.8.8.8.! ! ! ! { } 8.8.8.",
"8.8.8.=.| ! ! ! ! 8.8.8.8.8.8.c y y 5 3 : g _ _ _ _ _ _ _ _ _ _ _ _ _ _ _ _ _ _ _ _ ( 6 : > 0 f f 8.8.8.8.8.8.! ! ! ! | [ 8.8.8.",
"8.8.8.=.| ! ! ! ! 8.8.8.8.8.8.#.m m m m m m m m m m m m V m m m m m m m V m m m m m V m m m m m m 8.8.8.8.8.8.! ! ! ! | [ 8.8.8.",
"8.8.8.=.| ! ! ! ! 8.8.8.8.8.8.#.m m m m m C m m V V m C V C V C C m C C V C V C V V V V m m C m m 8.8.8.8.8.8.! ! ! ! | | 8.8.8.",
"8.8.8.=.| ! ! ! ! 8.8.8.8.,.,.| ] [ ] [ [ [ [ ] ] [ ] ] ] ] ] ] ] ] ] ] ] ] ] [ ] ] ] ] [ ] ] ] ] -.<.1.8.8.8.! ! ! ! | } 8.8.8.",
"8.8.8.=.| ! ! ! ! 8.8.8.<.[ | | | | | | | | | | | | | | | | | | | | | | | | | | | | | | | | | | | | | | 3.8.8.! ! ! ! | [ 8.8.8.",
"8.8.8.=.| ! ! ! ! 8.8.8.) ( ( ( ( ( ( ( ( ( ( ( ( ( ( ( ( ( ( ( ( ( ( ( ( ( ( ( ( ( ( ( ( ( ( ( ( ( ( ( *.8.8.! ! ! ! [ | 8.8.8.",
"8.8.8.=.| ! ! ! ! M m n m m m m m m m m n m m m m m m m m m m n m m m m m m m m m m m m m m m m m m m m m n n ! ! ! ! | | 8.8.8.",
"8.8.8.=.| ! ! ! ! B C C C C C C C C C m C C C C C C C C C C C C C C C C C C C C C C C m C C C C C C C C C C C ! ! ! ! | } 8.8.8.",
"8.8.8.=.| ! ! ! ! ' [ [ [ [ [ [ [ [ | [ [ [ [ [ [ [ [ [ [ [ [ [ [ [ [ [ [ [ [ [ [ [ [ [ [ [ [ [ [ [ [ [ [ [ [ ! ! ! ! } [ 8.8.8.",
"8.8.8.=.| ! ! ! ! ' | | | | | | | | | | | | | [ | | | | | [ | | | | | | | | | | | | | | | | | | | [ | | | | [ ! ! ! ! | [ 8.8.8.",
"8.8.8.=.| ! ! ! ! ! ! ! ! ! ! ! ! ! ! ! ! ! ! ! ! ! ! ! ! ! ! ! ! ! ! ! ! ! ! ! ! ! ! ! ! ! ! ! ! ! ! ! ! ! ! ! ! ! ! | | 8.8.8.",
"8.8.8.=.| ! ! ! ! ! ! ! ! ! ! ! ! ! ! ! ! ! ! ! ! ! ! ! ! ! ! ! ! ! ! ! ! ! ! ! ! ! ! ! ! ! ! ! ! ! ! ! ! ! ! ! ! ! ! | } 8.8.8.",
"8.8.8.=.| ! ! ! ! ! ! ! ! ! ! ! ! ! ! ! ! ! ! ! ! ! ! ! ! ! ! ! ! ! ! ! ! ! ! ! ! ! ! ! ! ! ! ! ! ! ! ! ! ! ! ! ! ! ! | [ 8.8.8."
};
