/* XPM */
static char *_54b38c1e53941b0b7bf8d6129ce7833zwrxp1r4SS2TvU6Z[] = {
/* columns rows colors chars-per-pixel */
"64 64 19 1 ",
"  c #E7A455",
". c #E5B35D",
"X c #E4D86F",
"o c #336AAA",
"O c #48DBB6",
"+ c #3B99D6",
"@ c #3999DB",
"# c #3A9DDE",
"$ c #308DE8",
"% c #1EDAD7",
"& c #1EDFD5",
"* c #1EDAD8",
"= c #2FDBC5",
"- c #25DACD",
"; c #37DAC0",
": c #22DAD1",
"> c #20DAD5",
", c #20DCD6",
"< c #1EE0D5",
/* pixels */
">>>>XXXX>>>>>>>>     %%%ooo@@@@@@@@@@ooo%%%     >>>>>>>>XXXX>>>>",
">>>>XXXX>>>>>>>>     %%%ooo@@@@@@@@@@ooo%%%     >>>>%->>XXXX>>>>",
">>>>XXXX>>>>>>>>     %%%ooo@@@@@@@@@@ooo%%%     >>>>>>>>XXXX>>>>",
">>>>XXXX>>>>>>>>     %%%ooo@@@@@@@@@@ooo%%%     >>>>>>>>XXXX>>>>",
"XXXX++++++++++++        %%%oooooooooo%%%        ++++++++++++XXXX",
"XXXX++++++++++++        %%%oooooooooo%%%        ++++++++++++XXXX",
"XXXX++++++++++++        %%%oooooooooo%%%        ++++++++++++XXXX",
"XXXX++++++++++++        %%%XXXXXXXXXX%%%        ++++++++++++XXXX",
">>>>++++XXXX++++XXXX    %%%XXXXXXXXXX%%%    XXXX++++XXXX++++>>>>",
">>>>++++XXXX++++XXXX    %%%XXXXXXXXXX%%%    XXXX++++XXXX++++>>>>",
">>>>++++XXXX++++XXXX    %%OXXXXXXXXXX%%%    XXXX++++XXXX++++>>>>",
">>>>++++XXXX++++XXXX    XXX%%%%%%%%%%XXX    XXXX++++XXXX++++>>>&",
">>>>++++++++    oooo    XXX%%%%%%%%%%XXX    oooo    ++++++++>>,<",
">>>>++++++++    oooo    XXX%%%%%%%%%%XXX    oooo    ++++++++>>>>",
">>>>++++++++    oooo    XXX%%%->>%%%%XXX    oooo    ++++++++>>>>",
">>>>++++++++    oooo    XXX%%%:%%%%%%XXX    oooo    ++++++++>>>>",
"        XXXXoooooooo    XXX%%%:%%%%%%XXX    ooooooooXXXX        ",
"        XXXXoooooooo    XXX%%%->%%%%%XXX    ooooooooXXXX        ",
"        XXXXoooooooo    XXX%%%-%%%%%%XXX    ooooooooXXXX        ",
"        XXXXoooooooo    XXX%%%:*%%%%%XXX    ooooooooXXXX        ",
"                        XXX%%%:%%%%%%XXX                        ",
"%%%%                    XXX%%%-%%%%%%XXX                    >>>>",
"%%%%                    XXX%%%%%%%%%%XXX                    >>>>",
"%%%%                    XXX%%%%%%%%%%XXX                    >>>>",
"oooo%%%%%%%XXXXXXXXXXXXX...XXXXXXXXXX...XXXXXXXXXXXXX>>>>>>>oooo",
"oooo%%%%%%%XXXXXXXXXXXXX...XXXXXXXXXX...XXXXXXXXXXXXX>>>>>>>oooo",
"oooo%%%%%%%XXXXXXXXXXXXX...XXXXXXXXXX...XXXXXXXXXXXXX>>>>>>>oooo",
"@@@@oooXXXX%%%%%%%%%%%%%XXX$$$$$$$$$$XXX%%%%%%%%%%%%%XXXXooo@@@@",
"@@@@oooXXXX%%%%%%%%%%%%%XXX$$$$$$$$$$XXX%%%%%%%%%%%%%XXXXooo@@@@",
"@@@@oooXXXX%%%%%%%%%%%%%XXX$$$$$$$$$$XXX%%%%%%%*%%%%%XXXXooo@@@@",
"@@@@oooXXXX%%%%%%%%%%%%%XXX$$$$$$$$$$XXX%%%::--::-%%%XXXXooo@@@@",
"@@@@oooXXXX%%%%*%>>%*>=%XXX$$$$$$$$$$XXX%%%%%%%**:%%%XXXXooo@@@#",
"@@@@oooXXXX%%%%%%%%%*%;%XXX$$$$$$$$$$XXX%%%%%%%%*>%%%XXXXooo@@@#",
"@@@@oooXXXX%%%%%%%%%**;%XXX$$$$$$$$$$XXX%%%%%%%%:*%%%XXXXooo@@@@",
"@@@@oooXXXX%%%%%%%%%%%%%XXX$$$$$$$$$$XXX%%%%%%%%%%%%%XXXXooo@@@@",
"@@@@oooXXXX%%%%%%%%%%%%%XXX$$$$$$$$$$XXX%%%%%%%%%%%%%XXXXooo@@@@",
"@@@@oooXXXX%%%%%%%%%%%%%XXX$$$$$$$$$$XXX%%%%%%%%%%%%%XXXXooo@@@@",
"oooo%%%%%%%XXXXXXXXXXXXX...XXXXXXXXXX...XXXXXXXXXXXXX>>>>>>>oooo",
"oooo%%%%%%%XXXXXXXXXXXXX...XXXXXXXXXX...XXXXXXXXXXXXX>>>>>>>oooo",
"oooo%%%%%%%XXXXXXXXXXXXX...%%%%%%%%%%...XXXXXXXXXXXXX>>>>>%:oooo",
"%%%%                    XXX%%%%%%%%%%XXX                    >>>>",
"%%%%                    XXX%%%%%%%%%%XXX                    >>>>",
"%%%%                    XXX%%%%%*-%%%XXX                    >>>>",
"                        XXX%%%%%%:%%%XXX                        ",
"        XXXXoooooooo    XXX%%%%%%%%%%XXX    ooooooooXXXX        ",
"        XXXXoooooooo    XXX%%%%%%%%%%XXX    ooooooooXXXX        ",
"        XXXXoooooooo    XXX%%%%%%%%%%XXX    ooooooooXXXX        ",
"        XXXXoooooooo    XXX%%%%%%:%%%XXX    ooooooooXXXX        ",
"%%%%++++++++    oooo    XXX%%%%%*:%%%XXX    oooo    ++++++++%%%%",
"%%%%++++++++    oooo    XXX%%%%%%%%%%XXX    oooo    ++++++++%%%%",
"%%%%++++++++    oooo    XXX%%%%%%%%%%XXX    oooo    ++++++++>>>>",
"%%%%++++++++    oooo    XXX%%%%%%%%%%XXX    oooo    ++++++++>>>>",
"%%%%++++XXXX++++XXXX    XXX%%%%%%%%%%XXX    XXXX++++XXXX++++>>>>",
"%%%%++++XXXX++++XXXX    %%%XXXXXXXXXX%%%    XXXX++++XXXX++++>>>>",
"%%%%++++XXXX++++XXXX    %%%XXXXXXXXXX%%%    XXXX++++XXXX++++>>>>",
"%%%%++++XXXX++++XXXX    %%%XXXXXXXXXX%%%    XXXX++++XXXX++++>>>>",
"XXXX++++++++++++        %%%XXXXXXXXXX%%%        ++++++++++++XXXX",
"XXXX++++++++++++        %%%oooooooooo%%%        ++++++++++++XXXX",
"XXXX++++++++++++        %%%oooooooooo%%%        ++++++++++++XXXX",
"XXXX++++++++++++        %%%oooooooooo%%%        ++++++++++++XXXX",
"%:%>XXXX%%%%%%%%     %%%ooo@@@@@@@@@@ooo%%%     >>>>>>>>XXXX>>>>",
":%>>XXXX%%%%%%%%     %%%ooo@@@@@@@@@@ooo%%%     >>>>>>>>XXXX>>>>",
">>>>XXXX%%%%%%%%     %%%ooo@@@@@@@@@@ooo%%%     >>>>>>>>XXXX>>>>",
">>>>XXXX%%%<<%%%     %%%ooo@@@@@@@@@@ooo%%%     >>>>>>>>XXXX>>>>"
};
